solid OpenSCAD_Model
  facet normal -1 0 0
    outer loop
      vertex 0 50 0
      vertex 0 32.5 10
      vertex 0 50 30
    endloop
  endfacet
  facet normal -1 0 0
    outer loop
      vertex 0 50 0
      vertex 0 31.7678 8.23223
      vertex 0 32.5 10
    endloop
  endfacet
  facet normal -1 0 0
    outer loop
      vertex 0 50 0
      vertex 0 30 7.5
      vertex 0 31.7678 8.23223
    endloop
  endfacet
  facet normal -1 -0 0
    outer loop
      vertex 0 28.2322 8.23223
      vertex 0 0 0
      vertex 0 27.5 10
    endloop
  endfacet
  facet normal -1 -0 0
    outer loop
      vertex 0 30 7.5
      vertex 0 0 0
      vertex 0 28.2322 8.23223
    endloop
  endfacet
  facet normal -1 0 0
    outer loop
      vertex 0 0 0
      vertex 0 30 7.5
      vertex 0 50 0
    endloop
  endfacet
  facet normal -1 0 0
    outer loop
      vertex 0 31.7678 11.7678
      vertex 0 50 30
      vertex 0 32.5 10
    endloop
  endfacet
  facet normal -1 0 0
    outer loop
      vertex 0 30 12.5
      vertex 0 50 30
      vertex 0 31.7678 11.7678
    endloop
  endfacet
  facet normal -1 0 0
    outer loop
      vertex 0 0 30
      vertex 0 30 12.5
      vertex 0 28.2322 11.7678
    endloop
  endfacet
  facet normal -1 0 0
    outer loop
      vertex 0 0 30
      vertex 0 27.5 10
      vertex 0 0 0
    endloop
  endfacet
  facet normal -1 0 0
    outer loop
      vertex 0 27.5 10
      vertex 0 0 30
      vertex 0 28.2322 11.7678
    endloop
  endfacet
  facet normal -1 0 0
    outer loop
      vertex 0 30 12.5
      vertex 0 0 30
      vertex 0 50 30
    endloop
  endfacet
  facet normal 0 0 1
    outer loop
      vertex 100 50 30
      vertex 98 48 30
      vertex 100 0 30
    endloop
  endfacet
  facet normal 0 0 1
    outer loop
      vertex 100 50 30
      vertex 2 48 30
      vertex 98 48 30
    endloop
  endfacet
  facet normal 0 0 1
    outer loop
      vertex 2 48 30
      vertex 0 50 30
      vertex 2 2 30
    endloop
  endfacet
  facet normal -0 0 1
    outer loop
      vertex 0 50 30
      vertex 2 48 30
      vertex 100 50 30
    endloop
  endfacet
  facet normal -0 0 1
    outer loop
      vertex 98 2 30
      vertex 100 0 30
      vertex 98 48 30
    endloop
  endfacet
  facet normal -0 0 1
    outer loop
      vertex 2 2 30
      vertex 100 0 30
      vertex 98 2 30
    endloop
  endfacet
  facet normal 0 0 1
    outer loop
      vertex 2 2 30
      vertex 0 0 30
      vertex 100 0 30
    endloop
  endfacet
  facet normal 0 0 1
    outer loop
      vertex 0 0 30
      vertex 2 2 30
      vertex 0 50 30
    endloop
  endfacet
  facet normal 1 -0 0
    outer loop
      vertex 100 0 30
      vertex 100 50 0
      vertex 100 50 30
    endloop
  endfacet
  facet normal 1 0 0
    outer loop
      vertex 100 50 0
      vertex 100 0 30
      vertex 100 0 0
    endloop
  endfacet
  facet normal 0 0 -1
    outer loop
      vertex 0 0 0
      vertex 100 50 0
      vertex 100 0 0
    endloop
  endfacet
  facet normal -0 0 -1
    outer loop
      vertex 100 50 0
      vertex 0 0 0
      vertex 0 50 0
    endloop
  endfacet
  facet normal 0 -1 0
    outer loop
      vertex 0 0 0
      vertex 100 0 30
      vertex 0 0 30
    endloop
  endfacet
  facet normal 0 -1 -0
    outer loop
      vertex 100 0 30
      vertex 0 0 0
      vertex 100 0 0
    endloop
  endfacet
  facet normal 0 1 -0
    outer loop
      vertex 100 50 0
      vertex 0 50 30
      vertex 100 50 30
    endloop
  endfacet
  facet normal 0 1 0
    outer loop
      vertex 0 50 30
      vertex 100 50 0
      vertex 0 50 0
    endloop
  endfacet
  facet normal 1 0 0
    outer loop
      vertex 2 48 30
      vertex 2 32.5 10
      vertex 2 48 2
    endloop
  endfacet
  facet normal 1 0 0
    outer loop
      vertex 2 48 30
      vertex 2 31.7678 11.7678
      vertex 2 32.5 10
    endloop
  endfacet
  facet normal 1 0 0
    outer loop
      vertex 2 48 30
      vertex 2 30 12.5
      vertex 2 31.7678 11.7678
    endloop
  endfacet
  facet normal 1 -0 0
    outer loop
      vertex 2 2 30
      vertex 2 30 12.5
      vertex 2 48 30
    endloop
  endfacet
  facet normal 1 0 0
    outer loop
      vertex 2 28.2322 11.7678
      vertex 2 2 30
      vertex 2 27.5 10
    endloop
  endfacet
  facet normal 1 0 0
    outer loop
      vertex 2 30 12.5
      vertex 2 2 30
      vertex 2 28.2322 11.7678
    endloop
  endfacet
  facet normal 1 -0 0
    outer loop
      vertex 2 31.7678 8.23223
      vertex 2 48 2
      vertex 2 32.5 10
    endloop
  endfacet
  facet normal 1 -0 0
    outer loop
      vertex 2 30 7.5
      vertex 2 48 2
      vertex 2 31.7678 8.23223
    endloop
  endfacet
  facet normal 1 0 0
    outer loop
      vertex 2 2 2
      vertex 2 27.5 10
      vertex 2 2 30
    endloop
  endfacet
  facet normal 1 0 0
    outer loop
      vertex 2 30 7.5
      vertex 2 2 2
      vertex 2 48 2
    endloop
  endfacet
  facet normal 1 0 0
    outer loop
      vertex 2 28.2322 8.23223
      vertex 2 2 2
      vertex 2 30 7.5
    endloop
  endfacet
  facet normal 1 0 0
    outer loop
      vertex 2 27.5 10
      vertex 2 2 2
      vertex 2 28.2322 8.23223
    endloop
  endfacet
  facet normal -1 0 0
    outer loop
      vertex 98 2 2
      vertex 98 48 30
      vertex 98 48 2
    endloop
  endfacet
  facet normal -1 -0 0
    outer loop
      vertex 98 48 30
      vertex 98 2 2
      vertex 98 2 30
    endloop
  endfacet
  facet normal 0 -1 0
    outer loop
      vertex 2 48 2
      vertex 98 48 30
      vertex 2 48 30
    endloop
  endfacet
  facet normal 0 -1 -0
    outer loop
      vertex 98 48 30
      vertex 2 48 2
      vertex 98 48 2
    endloop
  endfacet
  facet normal 0 0 1
    outer loop
      vertex 98 48 2
      vertex 15 15 2
      vertex 98 2 2
    endloop
  endfacet
  facet normal -0 0 1
    outer loop
      vertex 2 48 2
      vertex 15 15 2
      vertex 98 48 2
    endloop
  endfacet
  facet normal 0 0 1
    outer loop
      vertex 2 2 2
      vertex 5 15 2
      vertex 2 48 2
    endloop
  endfacet
  facet normal 0 0 1
    outer loop
      vertex 15 15 2
      vertex 2 48 2
      vertex 5 15 2
    endloop
  endfacet
  facet normal -0 0 1
    outer loop
      vertex 15 5 2
      vertex 98 2 2
      vertex 15 15 2
    endloop
  endfacet
  facet normal 0 0 1
    outer loop
      vertex 2 2 2
      vertex 15 5 2
      vertex 5 5 2
    endloop
  endfacet
  facet normal 0 0 1
    outer loop
      vertex 15 5 2
      vertex 2 2 2
      vertex 98 2 2
    endloop
  endfacet
  facet normal 0 0 1
    outer loop
      vertex 5 15 2
      vertex 2 2 2
      vertex 5 5 2
    endloop
  endfacet
  facet normal 0 1 -0
    outer loop
      vertex 98 2 2
      vertex 2 2 30
      vertex 98 2 30
    endloop
  endfacet
  facet normal 0 1 0
    outer loop
      vertex 2 2 30
      vertex 98 2 2
      vertex 2 2 2
    endloop
  endfacet
  facet normal 0 -0.382676 0.923883
    outer loop
      vertex 0 31.7678 8.23223
      vertex 2 30 7.5
      vertex 2 31.7678 8.23223
    endloop
  endfacet
  facet normal 0 -0.382676 0.923883
    outer loop
      vertex 2 30 7.5
      vertex 0 31.7678 8.23223
      vertex 0 30 7.5
    endloop
  endfacet
  facet normal 0 -0.382663 -0.923888
    outer loop
      vertex 0 30 12.5
      vertex 2 31.7678 11.7678
      vertex 2 30 12.5
    endloop
  endfacet
  facet normal -0 -0.382663 -0.923888
    outer loop
      vertex 2 31.7678 11.7678
      vertex 0 30 12.5
      vertex 0 31.7678 11.7678
    endloop
  endfacet
  facet normal 0 -0.923886 0.382668
    outer loop
      vertex 0 31.7678 8.23223
      vertex 2 32.5 10
      vertex 0 32.5 10
    endloop
  endfacet
  facet normal 0 -0.923886 0.382668
    outer loop
      vertex 2 32.5 10
      vertex 0 31.7678 8.23223
      vertex 2 31.7678 8.23223
    endloop
  endfacet
  facet normal 0 -0.923888 -0.382663
    outer loop
      vertex 0 32.5 10
      vertex 2 31.7678 11.7678
      vertex 0 31.7678 11.7678
    endloop
  endfacet
  facet normal 0 -0.923888 -0.382663
    outer loop
      vertex 2 31.7678 11.7678
      vertex 0 32.5 10
      vertex 2 32.5 10
    endloop
  endfacet
  facet normal -0 0.382676 0.923883
    outer loop
      vertex 0 30 7.5
      vertex 2 28.2322 8.23223
      vertex 2 30 7.5
    endloop
  endfacet
  facet normal 0 0.382676 0.923883
    outer loop
      vertex 2 28.2322 8.23223
      vertex 0 30 7.5
      vertex 0 28.2322 8.23223
    endloop
  endfacet
  facet normal 0 0.923886 0.382668
    outer loop
      vertex 2 28.2322 8.23223
      vertex 0 27.5 10
      vertex 2 27.5 10
    endloop
  endfacet
  facet normal 0 0.923886 0.382668
    outer loop
      vertex 0 27.5 10
      vertex 2 28.2322 8.23223
      vertex 0 28.2322 8.23223
    endloop
  endfacet
  facet normal 0 0.382663 -0.923888
    outer loop
      vertex 0 28.2322 11.7678
      vertex 2 30 12.5
      vertex 2 28.2322 11.7678
    endloop
  endfacet
  facet normal 0 0.382663 -0.923888
    outer loop
      vertex 2 30 12.5
      vertex 0 28.2322 11.7678
      vertex 0 30 12.5
    endloop
  endfacet
  facet normal 0 0.923888 -0.382663
    outer loop
      vertex 2 27.5 10
      vertex 0 28.2322 11.7678
      vertex 2 28.2322 11.7678
    endloop
  endfacet
  facet normal 0 0.923888 -0.382663
    outer loop
      vertex 0 28.2322 11.7678
      vertex 2 27.5 10
      vertex 0 27.5 10
    endloop
  endfacet
  facet normal -1 0 0
    outer loop
      vertex 5 5 2
      vertex 5 15 10
      vertex 5 15 2
    endloop
  endfacet
  facet normal -1 -0 0
    outer loop
      vertex 5 15 10
      vertex 5 5 2
      vertex 5 5 10
    endloop
  endfacet
  facet normal -0 0 1
    outer loop
      vertex 5 15 10
      vertex 15 5 10
      vertex 15 15 10
    endloop
  endfacet
  facet normal 0 0 1
    outer loop
      vertex 15 5 10
      vertex 5 15 10
      vertex 5 5 10
    endloop
  endfacet
  facet normal 1 -0 0
    outer loop
      vertex 15 5 10
      vertex 15 15 2
      vertex 15 15 10
    endloop
  endfacet
  facet normal 1 0 0
    outer loop
      vertex 15 15 2
      vertex 15 5 10
      vertex 15 5 2
    endloop
  endfacet
  facet normal 0 1 -0
    outer loop
      vertex 15 15 2
      vertex 5 15 10
      vertex 15 15 10
    endloop
  endfacet
  facet normal 0 1 0
    outer loop
      vertex 5 15 10
      vertex 15 15 2
      vertex 5 15 2
    endloop
  endfacet
  facet normal 0 -1 0
    outer loop
      vertex 5 5 2
      vertex 15 5 10
      vertex 5 5 10
    endloop
  endfacet
  facet normal 0 -1 -0
    outer loop
      vertex 15 5 10
      vertex 5 5 2
      vertex 15 5 2
    endloop
  endfacet
endsolid OpenSCAD_Model
